<svg width="1506" height="922" viewBox="0 0 1506 922" fill="none" xmlns="http://www.w3.org/2000/svg">
<path d="M1488.89 -19.5264H16.616C7.43923 -19.5264 0 -12.0862 0 -2.9082V904.909C0 914.087 7.43923 921.528 16.616 921.528H1488.89C1498.06 921.528 1505.5 914.087 1505.5 904.909V-2.9082C1505.5 -12.0862 1498.06 -19.5264 1488.89 -19.5264Z" fill="#FBFBFB"/>
<mask id="mask0_1525_8559" style="mask-type:luminance" maskUnits="userSpaceOnUse" x="621" y="-20" width="885" height="771">
<path d="M1489.31 -19.5264H1001.61C998.358 18.3335 975.482 88.6635 856.634 126.312C688.784 179.495 607.421 249.376 624.09 373.128C640.758 496.879 758.682 583.801 919.267 608.107C1079.88 632.414 1128.2 732.043 1261.84 746.574C1372.07 758.543 1442.71 743.721 1505.48 709.058V-3.33092C1505.48 -12.2609 1498.24 -19.5264 1489.28 -19.5264H1489.31Z" fill="white"/>
</mask>
<g mask="url(#mask0_1525_8559)">
<path d="M1489.31 -19.5264H1001.61C998.358 18.3335 975.482 88.6635 856.634 126.312C688.784 179.495 607.421 249.376 624.09 373.128C640.758 496.879 758.682 583.801 919.267 608.107C1079.88 632.414 1128.2 732.043 1261.84 746.574C1372.07 758.543 1442.71 743.721 1505.48 709.058V-3.33092C1505.48 -12.2609 1498.24 -19.5264 1489.28 -19.5264H1489.31Z" fill="#F5F5F5"/>
<path d="M1212.99 255.585L1125.24 282.824L1057.82 242.692C1056.47 241.9 1056.71 239.865 1058.22 239.416C1066.38 236.88 1075.02 236.193 1083.47 237.382L1212.97 255.585H1212.99Z" fill="#FFBB8A"/>
<path d="M1075.94 236.853L1139.16 274.475L1204.04 254.343L1083.5 237.408C1080.99 237.065 1078.48 236.88 1075.94 236.88V236.853Z" fill="#FFBB8A"/>
<path d="M917.26 314.449L916.15 314.792C907.882 317.355 898.953 316.615 891.24 312.705L809.85 271.49C806.548 269.799 802.691 269.482 799.152 270.592L793.499 272.335C792.415 272.679 791.887 273.868 792.31 274.898L821.738 344.118L826.017 354.079L920.456 324.753L917.26 314.449Z" fill="#FFBB8A"/>
<path d="M1002.19 358.438L1363.22 246.338C1383.93 239.918 1403.83 231.173 1422.58 220.288L1470.08 192.705C1470.76 192.309 1471.4 191.834 1471.98 191.279C1478.06 185.466 1474.67 175.189 1466.33 174.132L1413.15 167.342C1402.58 165.995 1391.86 166.919 1381.66 170.09L827.761 342.084C826.493 342.48 825.383 343.273 824.564 344.33C821.976 347.791 823.534 352.784 827.655 354.132L837.271 357.276C890.791 374.739 948.431 375.135 1002.19 358.438Z" fill="#FFBB8A"/>
<path d="M978.572 345.228L1378.89 220.922C1401.84 213.789 1423.93 204.092 1444.69 192.045L1471.56 176.431C1470.16 175.215 1468.39 174.37 1466.3 174.106L1413.12 167.316C1402.56 165.968 1391.83 166.893 1381.64 170.063L827.734 342.058C826.466 342.454 825.357 343.247 824.538 344.303C822.821 346.602 822.953 349.535 824.432 351.675C875.337 362.877 928.46 360.763 978.546 345.202L978.572 345.228Z" fill="#FBFBFB"/>
<path d="M1397.01 183.987L1439.7 170.724L1413.07 167.237L1393.65 173.26C1390.7 174.185 1389.03 177.329 1389.96 180.288C1390.88 183.247 1394.02 184.912 1396.98 183.987H1397.01Z" fill="#FFBB8A"/>
<path d="M1337.29 206.869L1340.67 205.82C1341.91 205.434 1342.6 204.117 1342.22 202.877L1341.17 199.496C1340.78 198.255 1339.47 197.562 1338.23 197.947L1334.85 198.997C1333.61 199.382 1332.91 200.7 1333.3 201.94L1334.35 205.321C1334.73 206.561 1336.05 207.255 1337.29 206.869Z" fill="#FFBB8A"/>
<path d="M1313.87 214.257L1317.26 213.208C1318.5 212.822 1319.19 211.505 1318.8 210.265L1317.75 206.884C1317.37 205.643 1316.05 204.95 1314.81 205.335L1311.43 206.385C1310.19 206.77 1309.5 208.088 1309.88 209.328L1310.93 212.709C1311.32 213.949 1312.63 214.643 1313.87 214.257Z" fill="#FFBB8A"/>
<path d="M1290.45 221.461L1293.83 220.412C1295.07 220.027 1295.77 218.709 1295.38 217.469L1294.33 214.088C1293.95 212.847 1292.63 212.154 1291.39 212.539L1288.01 213.589C1286.77 213.974 1286.07 215.292 1286.46 216.532L1287.51 219.913C1287.89 221.153 1289.21 221.847 1290.45 221.461Z" fill="#FFBB8A"/>
<path d="M1267.04 228.77L1270.42 227.72C1271.66 227.335 1272.35 226.018 1271.96 224.777L1270.91 221.396C1270.53 220.156 1269.21 219.463 1267.97 219.848L1264.59 220.898C1263.35 221.283 1262.66 222.6 1263.04 223.841L1264.09 227.222C1264.48 228.462 1265.8 229.155 1267.04 228.77Z" fill="#FFBB8A"/>
<path d="M1243.65 235.939L1247.03 234.889C1248.27 234.504 1248.96 233.186 1248.57 231.946L1247.52 228.565C1247.14 227.325 1245.82 226.632 1244.58 227.017L1241.2 228.067C1239.96 228.452 1239.27 229.769 1239.65 231.009L1240.7 234.39C1241.09 235.631 1242.41 236.324 1243.65 235.939Z" fill="#FFBB8A"/>
<path d="M1220.23 243.195L1223.61 242.145C1224.85 241.76 1225.54 240.442 1225.16 239.202L1224.11 235.821C1223.72 234.581 1222.41 233.887 1221.17 234.273L1217.79 235.322C1216.55 235.707 1215.85 237.025 1216.24 238.265L1217.29 241.646C1217.67 242.887 1218.99 243.58 1220.23 243.195Z" fill="#FFBB8A"/>
<path d="M1196.81 250.583L1200.19 249.533C1201.43 249.148 1202.13 247.83 1201.74 246.59L1200.69 243.209C1200.31 241.969 1198.99 241.275 1197.75 241.66L1194.37 242.71C1193.13 243.095 1192.44 244.413 1192.82 245.653L1193.87 249.034C1194.26 250.274 1195.57 250.968 1196.81 250.583Z" fill="#FFBB8A"/>
<path d="M1173.4 257.865L1176.78 256.815C1178.02 256.43 1178.71 255.112 1178.33 253.872L1177.28 250.491C1176.89 249.251 1175.58 248.558 1174.33 248.943L1170.95 249.993C1169.71 250.378 1169.02 251.695 1169.41 252.935L1170.46 256.316C1170.84 257.557 1172.16 258.25 1173.4 257.865Z" fill="#FFBB8A"/>
<path d="M1149.98 265.121L1153.36 264.071C1154.6 263.686 1155.3 262.368 1154.91 261.128L1153.86 257.747C1153.48 256.507 1152.16 255.813 1150.92 256.199L1147.54 257.248C1146.3 257.633 1145.61 258.951 1145.99 260.191L1147.04 263.572C1147.43 264.813 1148.74 265.506 1149.98 265.121Z" fill="#FFBB8A"/>
<path d="M1126.58 272.264L1129.97 271.214C1131.21 270.829 1131.9 269.512 1131.51 268.271L1130.46 264.89C1130.08 263.65 1128.76 262.957 1127.52 263.342L1124.14 264.392C1122.9 264.777 1122.21 266.095 1122.59 267.335L1123.64 270.716C1124.03 271.956 1125.34 272.649 1126.58 272.264Z" fill="#FFBB8A"/>
<path d="M1103.17 279.546L1106.55 278.497C1107.79 278.112 1108.48 276.794 1108.1 275.554L1107.05 272.173C1106.66 270.932 1105.35 270.239 1104.11 270.624L1100.72 271.674C1099.48 272.059 1098.79 273.377 1099.18 274.617L1100.23 277.998C1100.61 279.238 1101.93 279.932 1103.17 279.546Z" fill="#FFBB8A"/>
<path d="M1079.75 286.908L1083.13 285.858C1084.37 285.473 1085.07 284.155 1084.68 282.915L1083.63 279.534C1083.25 278.294 1081.93 277.601 1080.69 277.986L1077.31 279.036C1076.07 279.421 1075.38 280.738 1075.76 281.979L1076.81 285.36C1077.2 286.6 1078.51 287.293 1079.75 286.908Z" fill="#FFBB8A"/>
<path d="M1056.34 294.19L1059.72 293.14C1060.96 292.755 1061.65 291.438 1061.27 290.198L1060.22 286.816C1059.83 285.576 1058.51 284.883 1057.27 285.268L1053.89 286.318C1052.65 286.703 1051.96 288.021 1052.35 289.261L1053.4 292.642C1053.78 293.882 1055.1 294.575 1056.34 294.19Z" fill="#FFBB8A"/>
<path d="M1250.27 251.331L1115.15 293.286L1065.51 401.001C1064.14 403.96 1066.94 407.13 1070.05 406.179L1073.35 405.149C1082.39 402.348 1090.66 397.592 1097.63 391.199L1250.29 251.331H1250.27Z" fill="#FFBB8A"/>
<path d="M1093.4 393.101C1093.11 393.735 1093.04 394.369 1093.06 394.977C1094.62 393.788 1096.15 392.546 1097.61 391.199L1250.27 251.331L1143.46 284.488L1093.4 393.075V393.101Z" fill="#FFBB8A"/>
<path d="M871.374 335.928L823.825 350.697L805.095 391.305L813.919 388.557L871.374 335.928Z" fill="#FFBB8A"/>
<path d="M848.445 219.812C851.192 214.74 858.694 211.12 867.544 211.12C870.001 211.12 872.352 211.411 874.518 211.939C875.601 208.874 878.401 206.206 882.231 204.383C884.582 192.97 899.851 184.145 918.369 184.145C932.343 184.145 944.469 189.165 950.597 196.536C953.979 195.295 957.915 194.555 962.115 194.555C974.874 194.555 985.203 201.16 985.203 209.297C985.203 209.931 985.124 210.565 984.992 211.199C985.678 211.147 986.365 211.12 987.078 211.12C995.928 211.12 1003.43 214.766 1006.18 219.812H848.471H848.445Z" fill="#FBFBFB"/>
<path d="M573.634 301.714C576.381 296.642 583.884 293.022 592.733 293.022C595.19 293.022 597.541 293.313 599.707 293.841C600.79 290.776 603.59 288.108 607.421 286.285C609.772 274.872 625.041 266.047 643.558 266.047C657.533 266.047 669.658 271.067 675.787 278.438C679.168 277.197 683.104 276.457 687.304 276.457C700.063 276.457 710.392 283.062 710.392 291.199C710.392 291.833 710.313 292.467 710.181 293.101C710.868 293.049 711.555 293.022 712.268 293.022C721.117 293.022 728.62 296.668 731.367 301.714H573.66H573.634Z" fill="#FBFBFB"/>
<path d="M1217.19 352.837C1219.94 347.764 1227.44 344.145 1236.29 344.145C1238.75 344.145 1241.1 344.435 1243.27 344.964C1244.35 341.899 1247.15 339.231 1250.98 337.408C1253.33 325.994 1268.6 317.17 1287.12 317.17C1301.09 317.17 1313.22 322.19 1319.35 329.561C1322.73 328.319 1326.66 327.579 1330.86 327.579C1343.62 327.579 1353.95 334.184 1353.95 342.322C1353.95 342.956 1353.87 343.59 1353.74 344.224C1354.43 344.171 1355.11 344.145 1355.83 344.145C1364.68 344.145 1372.18 347.791 1374.93 352.837H1217.22H1217.19Z" fill="#FBFBFB"/>
<path d="M1271.16 177.25C1268.39 172.124 1260.78 168.425 1251.8 168.425C1249.31 168.425 1246.91 168.716 1244.72 169.244C1243.64 166.127 1240.78 163.432 1236.9 161.583C1234.5 149.984 1219.02 141.054 1200.23 141.054C1186.05 141.054 1173.76 146.153 1167.53 153.63C1164.1 152.362 1160.11 151.622 1155.85 151.622C1142.91 151.622 1132.42 158.333 1132.42 166.576C1132.42 167.236 1132.5 167.87 1132.63 168.505C1131.95 168.452 1131.23 168.425 1130.52 168.425C1121.54 168.425 1113.93 172.124 1111.16 177.25H1271.19H1271.16Z" fill="#FBFBFB"/>
<path d="M1252.12 38.5182C1254.31 34.4759 1260.3 31.5697 1267.36 31.5697C1269.31 31.5697 1271.19 31.8075 1272.93 32.2038C1273.8 29.7467 1276.02 27.6331 1279.09 26.18C1280.96 17.0651 1293.17 10.011 1307.93 10.011C1319.08 10.011 1328.78 14.0268 1333.66 19.8921C1336.36 18.8881 1339.5 18.3069 1342.86 18.3069C1353.03 18.3069 1361.29 23.5909 1361.29 30.0902C1361.29 30.5922 1361.22 31.1206 1361.14 31.5961C1361.69 31.5697 1362.25 31.5433 1362.8 31.5433C1369.88 31.5433 1375.85 34.4495 1378.04 38.4918H1252.12V38.5182Z" fill="#FBFBFB"/>
<path d="M1052.99 20.0243C1053.97 18.2277 1056.61 16.9331 1059.75 16.9331C1060.62 16.9331 1061.44 17.0388 1062.23 17.2238C1062.6 16.1405 1063.61 15.1894 1064.95 14.5553C1065.8 10.5131 1071.19 7.39551 1077.74 7.39551C1082.68 7.39551 1086.99 9.16566 1089.15 11.7812C1090.34 11.3321 1091.74 11.0679 1093.22 11.0679C1097.74 11.0679 1101.38 13.3929 1101.38 16.2991C1101.38 16.5368 1101.36 16.7482 1101.3 16.9596C1101.54 16.9596 1101.78 16.9596 1102.04 16.9596C1105.19 16.9596 1107.83 18.2541 1108.81 20.0507H1052.96L1052.99 20.0243Z" fill="#FBFBFB"/>
<path d="M1572.49 294.634C1570.01 290.037 1563.2 286.734 1555.17 286.734C1552.92 286.734 1550.81 286.998 1548.83 287.474C1547.85 284.674 1545.31 282.269 1541.82 280.631C1539.69 270.248 1525.82 262.243 1509.02 262.243C1496.34 262.243 1485.32 266.787 1479.75 273.498C1476.66 272.362 1473.12 271.701 1469.29 271.701C1457.71 271.701 1448.34 277.699 1448.34 285.096C1448.34 285.677 1448.42 286.259 1448.52 286.814C1447.91 286.761 1447.28 286.761 1446.65 286.761C1438.62 286.761 1431.8 290.063 1429.32 294.66H1572.52L1572.49 294.634Z" fill="#FBFBFB"/>
<path d="M1647.65 597.777H591.016V787.261H1647.65V597.777Z" fill="#FFBB8A"/>
<path d="M1647.65 527.87H591.016V568.821H1647.65V527.87Z" fill="#FFBB8A"/>
<path opacity="0.1" d="M1505.5 -19.5264H575.589V773.1H1505.5V-19.5264Z" fill="#FFBB8A"/>
<g opacity="0.39">
<path d="M563.332 766.574H521.937L1059.41 -60.636H1100.8L563.332 766.574Z" fill="#FBFBFB"/>
<path d="M1244.3 766.574H1202.9L1740.37 -60.636H1781.77L1244.3 766.574Z" fill="#FBFBFB"/>
<path d="M1167.82 766.574H1012.2L1549.67 -60.636H1705.32L1167.82 766.574Z" fill="#FBFBFB"/>
<path d="M488.52 766.574H332.874L870.37 -60.636H1026.02L488.52 766.574Z" fill="#FBFBFB"/>
</g>
<path d="M830.508 -111.098H807.763V763.325H830.508V-111.098Z" fill="#FBFBFB"/>
<path d="M1415.37 -111.098H1392.62V763.325H1415.37V-111.098Z" fill="#FBFBFB"/>
<path d="M1717.49 129.007V105.731L505.612 105.731V129.007L1717.49 129.007Z" fill="#FBFBFB"/>
</g>
<path d="M1028.66 794.263C1142.25 794.263 1234.34 785.285 1234.34 774.21C1234.34 763.135 1142.25 754.157 1028.66 754.157C915.065 754.157 822.979 763.135 822.979 774.21C822.979 785.285 915.065 794.263 1028.66 794.263Z" fill="#F5F5F5"/>
<path d="M1112.9 492.652L1039.86 511.093C1039.86 511.093 1058.72 592.995 1066.06 623.008C1073.59 653.734 1069.42 752.598 1069.42 752.598H1090.31L1101.62 622.638L1112.93 492.678L1112.9 492.652Z" fill="#236B44"/>
<path d="M1097 359.548C1097 359.548 1104.45 385.254 1116.49 428.874C1116.49 428.874 1132 434.501 1173.95 437.487L1172.63 451.436C1172.63 451.436 1126.37 459.812 1100.85 449.27C1075.34 438.755 1053.97 345.439 1097 359.548Z" fill="#FFA689"/>
<path d="M1137.44 449.455L1159.31 474.792L1194.66 428.768L1180.37 401.186L1137.44 449.455Z" fill="#5EB083"/>
<path d="M1133.61 460.076L1170.73 410.301L1194.66 428.768L1159.31 474.792L1133.61 460.076Z" fill="#5EB083"/>
<path d="M1188.5 438.993C1188.35 438.227 1187.37 437.936 1186.71 438.359C1185.44 439.178 1183.91 441.08 1180.32 441.186C1176.72 441.291 1172.02 438.781 1170.46 440.419C1170.46 440.419 1162.7 450.327 1170.57 460.129C1170.57 460.129 1194.4 466.337 1188.5 438.993Z" fill="#FFA689"/>
<path d="M1082.28 433.92C1082.28 433.92 1100.85 431.172 1116.1 418.042C1116.1 418.042 1110.71 389.059 1103.21 371.569C1095.7 354.079 1083.87 338.782 1064.64 350.169C1045.41 361.556 1051.01 387.659 1082.28 433.92Z" fill="#5EB083"/>
<path d="M1020.23 422.242C1020.23 422.242 1036.08 432.308 1056.18 432.308C1056.18 432.308 1071.03 406.84 1076.76 388.689C1082.49 370.565 1083.53 351.225 1061.52 347.289C1039.52 343.352 1026.7 366.787 1020.2 422.242H1020.23Z" fill="#5EB083"/>
<path d="M1102.84 500.525C1102.84 500.525 1057.69 485.281 1029.71 510.512C1029.71 510.512 1034.84 534.21 1050.29 562.559C1076.39 610.511 1089.76 626.02 1089.76 626.02C1089.76 626.02 1061.31 651.33 1006.49 714.606C1006.49 714.606 1009.93 727.552 1020.97 731.7C1020.97 731.7 1101.3 655.927 1125.53 635.716C1133.45 629.111 1131.84 624.144 1128.72 609.507C1123.44 584.725 1105.95 511.806 1102.86 500.525H1102.84Z" fill="#236B44"/>
<path d="M1064.4 312.679L1063.42 332.494C1063.42 332.494 1078.98 345.307 1091.79 344.726L1097.71 318.306L1061.44 293.656L1064.4 312.679Z" fill="#FFA689"/>
<path d="M1071.88 309.218C1071.88 309.218 1080.14 324.647 1095.23 329.35L1097.71 318.28L1071.88 309.191V309.218Z" fill="#ED8A6D"/>
<path d="M1040.02 582.348L1003.14 554.342C1001.08 552.757 1000.66 549.825 1002.24 547.737C1003.83 545.677 1006.76 545.254 1008.85 546.839L1045.72 574.844C1047.78 576.43 1048.21 579.362 1046.62 581.449C1045.04 583.51 1042.1 583.933 1040.02 582.348Z" fill="#07150E"/>
<path d="M1009.35 557.46L928.275 664.25" stroke="#07150E" stroke-width="0.94" stroke-miterlimit="10"/>
<path d="M1035.32 577.249L954.243 684.012" stroke="#07150E" stroke-width="0.94" stroke-miterlimit="10"/>
<path d="M1032.07 363.062C1032.07 363.062 992.6 365.043 986.26 387.315C979.92 409.587 980.765 497.117 980.765 497.117C980.765 497.117 989.086 517.011 1015.77 519.574C1015.77 519.574 1029.69 522.797 1028.87 493.576C1028.08 464.382 1032.04 363.062 1032.04 363.062H1032.07Z" fill="#050D08"/>
<path d="M1009.85 367.368C1009.85 367.368 1005.89 370.829 1003.77 375.373C996.034 392.018 998.411 436.906 995.136 440.525C992.388 443.537 987.739 444.092 983.142 445.36C981.188 445.888 978.889 444.647 978.995 442.744C980.739 404.356 977.78 372.414 1009.85 367.368Z" fill="#18432B"/>
<path d="M981.135 450.776C981.135 450.776 991.754 448.345 993.603 450.882C996.245 454.501 995.215 495.69 992.256 496.826C989.324 497.962 978.969 497.064 978.387 496.192C976.195 492.942 974.821 452.123 981.135 450.802V450.776Z" fill="#18432B"/>
<path d="M1114.67 263.009C1114.67 263.009 1125.61 316.245 1109.36 322.745C1093.11 329.244 1069.34 312.679 1063.53 295.823C1058.56 281.45 1059.09 247.315 1114.67 263.009Z" fill="#FFA689"/>
<path d="M1098.56 271.358C1098.56 271.358 1102.97 282.666 1094.25 285.334C1087.14 287.5 1085.08 292.732 1085.08 292.732C1085.08 292.732 1083.63 281.371 1075.89 280.948C1067.46 280.499 1067.94 292.52 1075.34 298.438C1075.34 298.438 1075.34 312.705 1064.4 312.705C1064.4 312.705 1039.73 284.383 1050.5 267.289C1048.92 262.084 1056.29 248.187 1075.2 246.417C1094.12 244.647 1099.56 249.059 1113.93 244.594C1127.67 240.341 1136.73 273.286 1098.58 271.384L1098.56 271.358Z" fill="#050D08"/>
<path opacity="0.22" d="M1067.38 496.113L1116.07 622.612L1012.81 721.792" stroke="#FBFBFB" stroke-width="0.25" stroke-miterlimit="10"/>
<path d="M930.468 774.13C930.468 780.656 925.185 785.967 918.633 785.967C912.082 785.967 906.799 780.683 906.799 774.13C906.799 767.578 912.082 762.294 918.633 762.294C925.185 762.294 930.468 767.578 930.468 774.13Z" fill="#07150E"/>
<path d="M886.405 753.259C886.405 759.784 881.122 765.095 874.571 765.095C868.019 765.095 862.736 759.811 862.736 753.259C862.736 746.706 868.019 741.422 874.571 741.422C881.122 741.422 886.405 746.706 886.405 753.259Z" fill="#07150E"/>
<path d="M982.297 661.978C982.297 661.978 985.943 714.818 967.028 743.985C948.114 773.153 920.509 768.424 920.509 768.424L926.189 759.494C926.189 759.494 946.133 767.658 957.941 736.508C969.776 705.359 967.398 673.021 967.398 673.021L982.271 661.978H982.297Z" fill="#07150E"/>
<path d="M960.424 647.05C960.424 647.05 972.259 648.186 981.637 659.441C988.875 668.107 934.695 751.911 922.517 770.511C921.064 772.73 918.369 773.761 915.807 773.074C907.089 770.749 886.934 764.487 872.299 753.444C872.299 753.444 928.223 655.293 960.424 647.05Z" fill="#050D08"/>
<path d="M964.624 647.975C964.624 647.975 920.139 621.212 896.259 643.431C880.409 658.173 849.871 699.705 838.037 716.086C835.184 720.049 835.633 725.491 839.12 728.926C846.754 736.403 862.762 748.239 874.042 754.395C875.707 755.319 877.793 754.765 878.85 753.179C888.519 738.516 934.774 669.666 964.651 647.949L964.624 647.975Z" fill="#18432B"/>
<path d="M866.117 681.449C864.374 680.075 861.759 680.815 860.411 682.585C854.758 690.009 840.625 708.582 838.539 712.096C834.444 718.965 851.192 733.496 871.665 744.302C878.058 747.684 885.877 733.021 894.119 721.792C899.561 714.368 904.263 707.843 903.655 705.438C902.968 702.849 892.323 699.52 882.575 693.497C876.208 689.534 870.767 685.121 866.117 681.475V681.449Z" fill="#236B44"/>
<path d="M964.624 647.975C964.624 647.975 944.522 633.735 916.018 633.285C891.794 632.916 865.193 674.844 865.193 674.844C861.759 679.256 903.259 704.408 907.882 698.675C926.215 676.086 944.152 658.939 953.292 650.67C953.926 650.141 958.839 646.178 964.651 647.975H964.624Z" fill="#236B44"/>
<path d="M889.232 748.978L914.011 711.594C914.909 710.247 916.679 709.745 918.132 710.458L942.382 721.951C943.914 722.691 944.442 724.593 943.518 726.02L919.505 762.426C918.132 764.513 915.437 765.359 913.112 764.381L891.134 755.214C888.677 754.183 887.779 751.198 889.232 748.978Z" fill="#103F26"/>
<path d="M1057.9 335.004C1057.9 335.004 1033.65 339.389 1029.71 375.664C1025.78 411.939 1029.71 514.607 1029.71 514.607C1029.71 514.607 1052.43 523.405 1078.19 510.855C1094.78 502.771 1105.37 502.321 1109.86 501.318C1111.69 500.895 1112.95 499.336 1112.98 497.46C1113.03 493.497 1113.09 485.888 1113.06 474.422C1112.98 442.375 1109.52 387.844 1095.73 350.433C1095.73 350.433 1072.32 336.14 1057.93 335.004H1057.9Z" fill="#5EB083"/>
<path d="M1074.25 401.265C1054.02 400.261 1039.04 408.372 1027.97 420.816C1027.76 463.616 1029.71 514.607 1029.71 514.607C1029.71 514.607 1043.24 519.811 1061.2 516.456C1048.34 496.773 1048.23 478.728 1059.35 456.588C1068.26 438.887 1074.25 401.265 1074.25 401.265Z" fill="#5EB083"/>
<path d="M1029.71 375.664C1029.71 375.664 1048.95 344.356 1063.03 349.64C1080.33 356.14 1083.84 389.587 1057.9 424.62L1044.09 439.23L1040.55 452.229C1040.55 452.229 1075.73 421.186 1084 391.014C1092.27 360.842 1081.41 348.874 1066.25 343.696C1047.63 337.328 1038.7 348.689 1027.34 364.383L1029.69 375.611L1029.71 375.664Z" fill="#050D08"/>
<path d="M1026.54 408.002C1026.54 408.002 1020.63 433.629 1018.67 465.967C1017.01 493.154 1016.74 526.628 1016.72 536.588C1016.72 538.305 1016.06 539.943 1014.84 541.132C1011.62 544.303 1005.41 552.149 1006.47 564.725C1006.84 569.138 1008.77 575.241 1019.73 578.754C1021.24 579.23 1025.2 580.895 1025.2 573.206C1025.2 565.518 1028.31 560.34 1031.46 557.777C1034.6 555.214 1037.82 561.978 1037.82 567.473C1037.82 572.968 1041.52 569.481 1042.26 565.571C1043 561.661 1042.42 551.146 1034.13 540.208C1034.13 540.208 1033.97 538.279 1035.02 525.122C1036.05 511.965 1038.27 467.421 1043 456.034C1047.73 444.647 1061.34 412.176 1061.34 412.176L1026.6 407.976L1026.54 408.002Z" fill="#FFA689"/>
<path d="M1020.23 424.779C1020.23 424.779 1036.08 432.308 1056.18 432.308C1056.18 432.308 1071.03 406.84 1076.76 388.689C1082.49 370.565 1083.53 351.225 1061.52 347.289C1039.52 343.352 1026.7 369.323 1020.2 424.779H1020.23Z" fill="#5EB083"/>
<path d="M1069.81 750.432C1069.81 750.432 1064 758.886 1066.86 771.118C1067.28 772.941 1068.84 774.183 1070.55 774.183H1133.32C1134.61 774.183 1135.64 772.968 1135.49 771.594C1135.06 768.027 1132.13 761.819 1117.21 759.996C1113.11 759.494 1109.2 757.961 1105.95 755.425C1100.59 751.224 1092.4 745.465 1089.57 747.05C1089.57 747.05 1080.57 752.492 1069.79 750.432H1069.81Z" fill="#050D08"/>
<path d="M1063.63 328.161C1061.39 328.24 1057.87 335.004 1057.87 335.004C1057.87 335.004 1064.53 340.129 1080.67 346.047C1088.15 348.795 1091.9 352.652 1093.62 355.083C1094.14 355.823 1095.28 355.532 1095.39 354.634C1095.86 351.041 1096.07 344.726 1092.56 341.08C1092.56 341.08 1070.32 335.004 1063.58 328.161H1063.63Z" fill="#236B44"/>
<path d="M1006.81 714.791C1006.81 714.791 996.641 716.086 989.377 726.337C988.294 727.842 988.399 729.85 989.562 731.145L1031.3 778.041C1032.17 779.018 1033.76 778.965 1034.68 777.935C1037.06 775.24 1039.73 768.926 1031.22 756.561C1028.87 753.179 1027.42 749.243 1027.15 745.121C1026.73 738.305 1025.59 728.371 1022.5 727.314C1022.5 727.314 1012.46 724.197 1006.84 714.791H1006.81Z" fill="#050D08"/>
<path d="M1032.7 564.963L1042.58 572.467L1041.76 576.852L1030.24 571.093L1032.7 564.963Z" fill="#07150E"/>
<path d="M762.908 655.584C762.908 658.411 747.455 660.709 728.382 660.709C709.309 660.709 693.855 658.411 693.855 655.584C693.855 652.757 709.309 650.458 728.382 650.458C747.455 650.458 762.908 652.757 762.908 655.584Z" fill="#103F26"/>
<path d="M728.382 779.943C764.213 779.943 793.261 776.595 793.261 772.466C793.261 768.337 764.213 764.989 728.382 764.989C692.55 764.989 663.503 768.337 663.503 772.466C663.503 776.595 692.55 779.943 728.382 779.943Z" fill="#F5F5F5"/>
<path d="M736.782 664.593C736.782 664.593 729.623 643.034 738.764 633.285C747.904 623.536 733.269 607.077 754.93 597.803C776.592 588.504 775.852 566.786 794.687 566.707C813.549 566.601 828.368 557.83 834.523 566.152C840.678 574.474 812.096 578.517 812.043 592.651C811.99 606.786 809.19 608.134 801.476 616.958C797.144 621.898 799.152 632.81 789.536 643.404C782.007 651.7 762.169 648.9 736.782 664.593Z" fill="#236B44"/>
<path d="M736.782 664.593C736.782 664.593 745.817 642.955 766.607 631.515C787.396 620.049 780.053 573.418 834.55 566.152" stroke="#FBFBFB" stroke-width="0.4" stroke-linecap="round" stroke-linejoin="round"/>
<path d="M741.035 674.844C741.035 674.844 737.231 644.012 744.205 619.23C751.179 594.448 739.767 586.522 720.246 580.102C700.697 573.708 712.981 553.286 707.169 534.237C701.358 515.188 686.723 544.778 681.862 518.86C677.002 492.942 669.605 479.547 663.688 480.657C657.771 481.767 655.789 487.5 651.589 517.143C647.362 546.786 626.784 544.593 644.642 568.107C662.499 591.595 667.043 584.963 657.137 605.359C635.951 648.926 711.792 636.033 741.062 674.844H741.035Z" fill="#5EB083"/>
<path d="M741.035 674.844C741.035 674.844 731.314 622.982 703.286 597.381C675.258 571.78 656.688 544.382 663.688 480.684" stroke="#FBFBFB" stroke-width="0.48" stroke-linecap="round" stroke-linejoin="round"/>
<path d="M731.288 670.617C731.288 670.617 700.856 589.983 679.908 595.056C658.959 600.155 656.846 601.211 637.773 585.941C618.674 570.67 604.805 587.341 619.414 599.573C634.022 611.806 634.524 612.916 620.602 626.363C606.681 639.838 639.887 654.897 669.103 650.379C698.32 645.835 726.718 663.933 731.288 670.617Z" fill="#236B44"/>
<path d="M731.288 670.617C731.288 670.617 717.023 640.63 678.587 632.863C640.151 625.095 658.114 599.758 613.338 588.028" stroke="#FBFBFB" stroke-width="0.44" stroke-linecap="round" stroke-linejoin="round"/>
<path d="M728.382 660.736C712.4 660.736 699.007 659.124 695.044 656.931C698.954 662.004 711.502 684.593 718.951 771.488C718.951 772.757 723.178 773.761 728.382 773.761C733.586 773.761 737.813 772.73 737.813 771.488C745.262 684.593 757.81 662.004 761.72 656.931C757.783 659.124 744.364 660.736 728.382 660.736Z" fill="#FFBB8A"/>
</svg>
